<svg id="svg" version="1.1" xmlns="http://www.w3.org/2000/svg" xmlns:xlink="http://www.w3.org/1999/xlink" width="400" height="533.3333333333334" viewBox="0, 0, 400,533.3333333333334"><g id="svgg"><path id="path0" d="M57.880 71.300 C 57.255 71.764,57.202 76.069,57.131 131.400 C 57.090 164.180,56.929 204.230,56.775 220.400 C 56.620 236.570,56.353 264.435,56.181 282.322 L 55.868 314.844 58.234 314.722 L 60.600 314.600 60.709 307.700 L 60.819 300.800 63.209 300.800 L 65.600 300.800 65.600 317.751 C 65.600 336.694,65.754 335.742,62.730 335.524 L 61.000 335.400 60.800 327.400 L 60.600 319.400 58.400 319.400 L 56.200 319.400 56.349 394.400 C 56.439 439.711,56.645 469.558,56.869 469.800 C 57.393 470.366,342.205 471.014,343.669 470.453 L 344.739 470.043 344.871 391.722 L 345.003 313.400 343.601 310.916 C 342.831 309.550,342.065 308.425,341.900 308.416 C 341.735 308.407,341.600 314.304,341.600 321.520 C 341.600 335.766,341.627 335.600,339.353 335.600 C 336.612 335.600,336.800 336.899,336.800 317.957 L 336.800 300.800 339.703 300.800 L 342.606 300.800 343.693 302.600 C 344.291 303.590,344.943 304.400,345.142 304.400 C 345.696 304.400,346.065 254.257,345.925 198.200 L 345.800 148.200 320.200 148.340 L 294.600 148.481 291.000 151.940 C 289.020 153.843,286.409 156.300,285.197 157.400 C 283.986 158.500,282.496 160.069,281.887 160.887 L 280.779 162.374 281.054 184.914 L 281.328 207.454 280.164 208.253 C 276.888 210.499,269.894 210.477,267.450 208.212 L 266.479 207.311 266.339 184.939 L 266.200 162.567 264.941 160.984 C 264.195 160.046,261.829 158.258,259.141 156.600 C 256.645 155.060,253.164 152.720,251.408 151.400 L 248.214 149.000 222.748 149.145 C 197.371 149.289,197.281 149.286,197.022 148.470 C 196.879 148.019,196.366 147.594,195.881 147.525 C 194.500 147.329,194.409 143.761,194.820 106.267 C 195.074 83.143,195.062 72.089,194.782 71.567 C 194.263 70.596,59.182 70.333,57.880 71.300 M106.306 232.170 C 111.276 233.493,115.374 237.639,115.694 241.669 L 115.800 243.000 113.712 243.120 L 111.623 243.241 110.740 241.363 C 106.983 233.370,95.578 234.114,91.765 242.600 C 90.461 245.503,90.143 252.781,91.180 256.000 C 94.564 266.506,107.619 266.881,111.168 256.575 C 112.330 253.200,116.708 253.449,115.945 256.847 C 112.665 271.444,92.173 272.396,86.811 258.200 C 81.123 243.138,92.158 228.404,106.306 232.170 M145.200 247.800 L 145.400 263.000 154.000 263.200 L 162.600 263.400 162.721 265.287 C 162.831 266.997,162.752 267.197,161.873 267.417 C 161.174 267.593,144.408 267.435,140.700 267.218 C 140.318 267.195,140.303 233.031,140.685 232.649 C 140.841 232.492,141.876 232.417,142.985 232.482 L 145.000 232.600 145.200 247.800 M211.600 234.600 L 211.600 236.800 201.624 236.800 C 190.026 236.800,191.091 236.237,191.175 242.323 C 191.255 248.067,190.348 247.586,201.122 247.594 L 210.044 247.600 209.922 249.500 L 209.800 251.400 200.500 251.507 L 191.200 251.615 191.200 257.401 L 191.200 263.186 201.500 263.293 L 211.800 263.400 211.926 265.160 C 212.007 266.298,211.866 267.039,211.526 267.254 C 210.928 267.633,188.003 267.730,187.033 267.357 C 186.373 267.104,186.016 233.317,186.667 232.667 C 186.813 232.520,192.483 232.400,199.267 232.400 L 211.600 232.400 211.600 234.600 M254.101 237.800 C 255.146 240.660,256.373 244.080,256.827 245.400 C 257.281 246.720,257.803 248.160,257.987 248.600 C 258.422 249.638,259.683 253.072,260.925 256.600 C 261.467 258.140,262.489 260.978,263.196 262.907 C 264.731 267.097,264.634 267.600,262.289 267.600 C 259.822 267.600,259.430 267.129,257.798 262.205 C 255.840 256.301,256.598 256.762,249.058 256.890 C 241.717 257.016,242.512 256.581,240.793 261.400 C 240.322 262.720,239.770 264.113,239.568 264.495 C 239.366 264.877,239.200 265.449,239.200 265.766 C 239.200 266.858,237.984 267.600,236.195 267.600 C 233.782 267.600,233.731 267.295,235.398 262.882 C 236.205 260.747,237.391 257.605,238.033 255.900 C 238.675 254.195,239.725 251.405,240.367 249.700 C 241.010 247.995,242.276 244.620,243.181 242.200 C 244.086 239.780,245.091 237.209,245.413 236.486 C 245.736 235.764,246.000 234.949,246.000 234.675 C 246.000 233.082,247.227 232.362,249.735 232.482 L 252.200 232.600 254.101 237.800 M308.184 232.998 C 315.807 234.818,318.438 244.901,312.409 249.193 L 311.116 250.114 312.406 251.124 C 314.255 252.571,314.726 254.065,315.025 259.439 C 315.225 263.017,315.479 264.531,316.050 265.531 C 317.060 267.301,316.772 267.601,314.076 267.594 C 310.843 267.585,310.888 267.659,310.411 261.587 C 309.709 252.657,309.295 252.317,299.352 252.490 L 293.000 252.600 292.890 259.782 C 292.812 264.915,292.641 267.054,292.290 267.276 C 291.531 267.759,289.016 267.656,288.480 267.120 C 287.972 266.612,287.747 234.325,288.243 233.033 C 288.579 232.157,304.547 232.129,308.184 232.998 M292.889 242.500 L 293.000 248.200 299.520 248.310 C 308.673 248.464,310.801 247.359,310.799 242.451 C 310.797 237.833,308.769 236.801,299.689 236.801 L 292.778 236.800 292.889 242.500 M248.880 239.280 C 248.616 239.544,248.400 239.970,248.400 240.227 C 248.400 240.483,248.050 241.572,247.622 242.647 C 245.546 247.856,243.998 252.473,244.211 252.817 C 244.583 253.419,253.897 253.309,254.100 252.700 C 254.192 252.425,253.562 250.220,252.699 247.800 C 251.836 245.380,250.846 242.500,250.498 241.400 C 249.728 238.965,249.497 238.663,248.880 239.280 M113.163 300.787 C 119.737 303.189,123.200 309.035,123.200 317.728 C 123.200 341.664,91.090 343.440,89.342 319.600 C 88.303 305.437,100.194 296.046,113.163 300.787 M301.920 300.633 C 311.760 303.898,315.699 316.575,310.298 327.598 C 304.582 339.264,286.506 339.472,280.923 327.936 C 279.160 324.294,279.002 323.494,279.003 318.200 C 279.007 304.405,289.362 296.467,301.920 300.633 M169.363 301.356 C 175.485 303.487,177.370 311.924,172.756 316.538 C 170.874 318.420,170.883 318.235,172.605 319.758 C 174.259 321.219,174.800 323.393,174.800 328.570 C 174.800 331.023,174.995 332.213,175.587 333.375 C 176.609 335.378,176.413 335.600,173.625 335.600 C 170.469 335.600,170.341 335.378,170.003 329.290 C 169.535 320.863,169.358 320.714,159.500 320.472 C 155.815 320.382,152.765 320.373,152.723 320.454 C 152.681 320.534,152.546 323.930,152.423 328.000 L 152.200 335.400 150.470 335.524 C 147.446 335.742,147.600 336.694,147.600 317.751 L 147.600 300.800 157.700 300.806 C 165.169 300.810,168.207 300.954,169.363 301.356 M206.400 317.957 C 206.400 336.899,206.588 335.600,203.847 335.600 C 201.541 335.600,201.600 336.070,201.600 317.720 L 201.600 300.800 204.000 300.800 L 206.400 300.800 206.400 317.957 M257.506 302.800 L 257.612 304.600 247.206 317.480 C 241.483 324.563,236.800 330.545,236.800 330.773 C 236.800 331.044,240.342 331.223,247.100 331.293 L 257.400 331.400 257.529 332.984 C 257.743 335.613,257.809 335.600,243.897 335.600 C 226.148 335.600,226.379 336.109,237.689 321.910 C 249.854 306.636,250.800 305.424,250.800 305.110 C 250.800 304.948,246.525 304.766,241.300 304.707 L 231.800 304.600 231.678 302.694 L 231.556 300.789 244.478 300.894 L 257.400 301.000 257.506 302.800 M102.130 304.655 C 92.628 308.022,91.470 325.476,100.400 330.736 C 103.987 332.849,111.483 332.167,114.031 329.496 C 124.345 318.687,115.373 299.962,102.130 304.655 M291.800 304.494 C 283.853 307.351,280.965 320.302,286.557 328.003 C 290.769 333.802,301.484 333.318,305.298 327.157 C 312.495 315.532,303.432 300.314,291.800 304.494 M152.667 305.067 C 152.333 305.400,152.312 314.906,152.643 315.767 C 153.030 316.776,165.159 316.674,167.430 315.642 C 171.306 313.882,171.414 307.406,167.600 305.501 C 166.170 304.786,153.321 304.413,152.667 305.067 M65.609 381.731 C 66.679 386.288,67.040 387.024,67.405 385.394 C 69.419 376.415,70.780 375.586,72.599 382.230 C 73.900 386.984,73.996 386.966,75.237 381.738 C 76.085 378.169,76.586 377.325,77.439 378.032 C 77.787 378.321,77.555 379.758,76.525 383.709 C 74.634 390.959,73.557 391.657,72.218 386.500 C 70.687 380.603,70.364 380.181,69.619 383.100 C 69.352 384.145,68.968 385.413,68.767 385.919 C 68.565 386.424,68.400 387.149,68.400 387.530 C 68.400 388.791,67.235 390.047,66.454 389.629 C 65.657 389.202,62.938 379.261,63.335 378.226 C 63.878 376.810,64.780 378.200,65.609 381.731 M91.600 378.619 C 91.600 379.371,90.811 379.771,90.312 379.272 C 89.715 378.675,90.240 377.564,90.985 377.850 C 91.323 377.979,91.600 378.326,91.600 378.619 M131.511 383.958 L 131.400 389.400 130.400 389.426 C 129.850 389.440,128.905 389.594,128.300 389.769 C 124.974 390.730,122.660 387.217,124.030 383.286 C 124.773 381.154,126.423 380.501,129.200 381.240 C 129.635 381.356,129.832 381.016,129.915 380.000 C 130.098 377.788,130.301 377.420,131.016 378.013 C 131.514 378.426,131.602 379.488,131.511 383.958 M209.958 378.760 C 210.641 379.399,211.200 380.198,211.200 380.537 C 211.200 381.738,210.297 381.698,209.323 380.453 C 206.902 377.360,202.800 379.464,202.800 383.800 C 202.800 386.860,203.991 388.366,206.430 388.387 C 207.840 388.400,208.419 388.019,209.904 386.102 C 211.008 384.679,211.876 385.506,211.018 387.165 C 208.258 392.502,200.800 389.829,200.800 383.502 C 200.800 378.692,206.644 375.665,209.958 378.760 M225.600 383.800 C 225.600 389.315,225.061 391.500,224.233 389.342 C 223.402 387.177,224.077 377.501,225.033 377.868 C 225.486 378.042,225.600 379.238,225.600 383.800 M299.428 378.445 C 299.579 378.689,299.459 379.040,299.162 379.224 C 298.592 379.576,297.898 378.888,298.250 378.319 C 298.531 377.864,299.106 377.925,299.428 378.445 M91.600 385.443 C 91.600 389.333,91.549 389.600,90.800 389.600 C 90.009 389.600,89.498 381.836,90.239 381.094 C 91.185 380.148,91.600 381.474,91.600 385.443 M110.771 381.854 C 111.996 383.411,112.019 389.600,110.800 389.600 C 110.075 389.600,110.000 389.333,110.000 386.774 C 110.000 380.633,106.165 380.327,105.918 386.449 C 105.821 388.877,105.678 389.415,105.100 389.525 C 104.469 389.646,104.400 389.239,104.400 385.379 L 104.400 381.100 105.584 381.337 C 106.236 381.467,106.877 381.400,107.008 381.187 C 107.527 380.347,109.919 380.771,110.771 381.854 M150.369 382.031 C 151.711 383.372,152.065 385.944,151.153 387.726 C 149.137 391.670,143.600 390.261,143.600 385.804 C 143.600 381.297,147.475 379.137,150.369 382.031 M165.363 383.953 C 166.201 387.131,166.489 387.092,167.255 383.695 C 168.118 379.868,169.494 379.955,170.399 383.895 C 171.149 387.156,171.402 387.203,172.207 384.228 C 172.959 381.450,173.805 380.227,174.223 381.315 C 174.684 382.516,172.251 389.387,171.316 389.523 C 170.530 389.638,169.200 386.693,169.200 384.838 C 169.200 384.597,169.048 384.400,168.863 384.400 C 168.506 384.400,167.600 387.066,167.600 388.118 C 167.600 389.201,166.376 390.152,165.783 389.529 C 165.080 388.789,163.099 382.040,163.374 381.323 C 163.839 380.112,164.623 381.149,165.363 383.953 M243.762 381.255 C 244.753 381.707,246.000 383.756,246.000 384.932 C 246.000 385.571,242.180 386.308,241.070 385.882 C 240.067 385.497,239.535 386.177,239.962 387.299 C 240.520 388.769,241.748 389.028,243.437 388.031 C 245.791 386.642,246.460 387.241,244.542 389.019 C 242.161 391.225,238.493 389.698,238.115 386.343 C 237.664 382.343,240.514 379.776,243.762 381.255 M263.726 381.260 C 265.044 381.954,265.187 382.359,265.194 385.420 C 265.197 387.072,265.399 388.439,265.680 388.720 C 266.520 389.560,265.431 390.259,264.258 389.631 C 263.541 389.247,263.093 389.229,262.476 389.559 C 260.454 390.641,258.000 389.455,258.000 387.396 C 258.000 386.056,259.216 385.087,261.512 384.597 C 262.996 384.280,263.400 384.024,263.400 383.397 C 263.400 382.354,260.802 382.033,260.017 382.980 C 259.371 383.757,258.400 383.787,258.400 383.029 C 258.400 381.394,261.822 380.258,263.726 381.260 M280.870 381.290 C 281.658 380.502,283.624 380.706,284.453 381.661 C 285.275 382.609,285.578 389.319,284.820 389.788 C 284.140 390.208,283.600 388.508,283.594 385.926 C 283.586 382.882,283.276 382.294,281.766 382.468 C 280.236 382.644,279.613 383.978,279.606 387.100 C 279.601 389.053,279.469 389.600,279.000 389.600 C 278.505 389.600,278.400 388.874,278.400 385.467 C 278.400 380.979,278.509 380.612,279.633 381.314 C 280.207 381.672,280.494 381.666,280.870 381.290 M314.870 381.290 C 317.061 379.099,319.200 381.326,319.200 385.799 C 319.200 391.461,317.729 391.446,317.518 385.781 L 317.400 382.600 316.012 382.600 C 314.220 382.600,313.614 383.727,313.606 387.076 C 313.600 389.684,313.124 390.552,312.420 389.237 C 311.184 386.929,312.157 380.392,313.602 381.294 C 314.213 381.676,314.485 381.675,314.870 381.290 M336.592 381.187 C 336.723 381.400,337.364 381.467,338.016 381.337 L 339.200 381.100 339.200 385.776 C 339.200 391.965,338.558 393.163,335.231 393.187 C 333.425 393.200,332.000 392.385,332.000 391.338 C 332.000 390.639,332.798 390.672,333.776 391.413 C 335.356 392.608,337.600 391.737,337.600 389.929 C 337.600 389.308,337.434 389.184,336.900 389.409 C 332.524 391.248,329.357 385.505,332.831 382.031 C 334.058 380.803,336.075 380.351,336.592 381.187 M299.514 385.565 C 299.619 389.318,299.568 389.653,298.914 389.528 C 298.192 389.389,297.613 383.186,298.184 381.698 C 298.829 380.016,299.406 381.693,299.514 385.565 M125.823 383.289 C 123.969 385.935,126.631 390.169,128.790 388.010 C 129.970 386.830,130.207 385.324,129.460 383.758 C 128.662 382.083,126.832 381.848,125.823 383.289 M145.664 383.419 C 144.701 385.532,145.580 388.822,147.100 388.795 C 150.772 388.728,151.110 382.400,147.442 382.400 C 146.423 382.400,146.024 382.628,145.664 383.419 M240.404 382.995 C 239.509 384.073,240.228 384.800,242.187 384.800 C 243.666 384.800,244.000 384.667,244.000 384.080 C 244.000 382.500,241.453 381.731,240.404 382.995 M333.862 383.131 C 333.008 384.075,332.988 386.930,333.829 387.771 C 335.427 389.370,337.600 387.963,337.600 385.330 C 337.600 382.755,335.383 381.451,333.862 383.131 M260.891 386.016 C 259.706 386.492,259.338 387.510,260.083 388.254 C 261.292 389.463,264.050 387.751,263.443 386.169 C 263.198 385.530,262.244 385.472,260.891 386.016 " stroke="none" fill="#fb7f06" fill-rule="evenodd"></path><path id="path1" d="M0.000 266.600 L 0.000 533.200 200.000 533.200 L 400.000 533.200 400.000 266.600 L 400.000 0.000 200.000 0.000 L 0.000 0.000 0.000 266.600 M195.427 70.284 C 196.096 70.953,196.024 134.281,195.349 138.800 C 195.222 139.651,195.277 140.007,195.489 139.708 C 195.823 139.237,261.356 138.521,326.531 138.276 L 346.861 138.200 346.815 222.610 L 346.769 307.020 349.784 311.736 C 351.443 314.330,352.800 316.541,352.800 316.648 C 352.800 316.756,353.520 317.904,354.400 319.200 C 355.280 320.496,356.000 321.746,356.000 321.978 C 356.000 322.210,356.180 322.400,356.400 322.400 C 356.620 322.400,356.800 322.593,356.800 322.828 C 356.800 323.063,357.385 324.098,358.100 325.128 L 359.400 327.000 359.600 313.800 L 359.800 300.600 362.200 300.600 L 364.600 300.600 364.704 317.754 C 364.821 336.926,364.962 336.000,361.925 336.000 C 359.359 336.000,358.654 335.584,357.337 333.293 C 356.738 332.252,355.563 330.375,354.724 329.122 C 353.886 327.869,353.200 326.731,353.200 326.593 C 353.200 326.456,352.975 326.096,352.700 325.794 C 352.425 325.492,351.030 323.345,349.600 321.023 C 348.170 318.701,346.891 316.801,346.759 316.801 C 346.110 316.799,346.000 328.357,346.000 396.632 C 346.000 463.109,345.938 470.405,345.371 470.971 C 344.691 471.652,57.192 471.964,56.125 471.286 C 54.831 470.463,54.800 468.677,54.794 394.674 C 54.791 353.933,54.653 320.388,54.489 320.130 C 54.119 319.549,43.750 319.290,43.193 319.847 C 42.987 320.053,42.769 323.727,42.709 328.011 L 42.600 335.800 41.038 335.928 C 40.179 335.998,39.052 335.949,38.534 335.819 L 37.592 335.583 37.696 318.091 L 37.800 300.600 40.300 300.481 L 42.800 300.362 42.800 306.948 C 42.800 310.571,42.909 313.819,43.043 314.167 C 43.294 314.822,52.241 315.143,53.778 314.553 C 54.364 314.328,54.418 310.704,54.378 274.053 C 54.343 241.672,54.464 231.179,54.999 220.400 C 55.536 209.592,55.716 193.809,55.932 138.812 L 56.200 70.623 57.200 70.118 C 58.979 69.218,194.524 69.381,195.427 70.284 M293.000 140.998 C 294.507 141.708,295.315 141.748,295.102 141.100 C 295.012 140.825,294.232 140.562,293.369 140.516 L 291.800 140.433 293.000 140.998 M249.400 141.200 C 249.102 141.682,256.096 141.682,257.600 141.200 C 258.239 140.995,256.984 140.865,254.124 140.840 C 251.526 140.817,249.543 140.968,249.400 141.200 M294.120 147.556 C 293.713 148.208,293.751 148.286,294.396 148.117 C 294.837 148.002,295.056 147.690,294.930 147.361 C 294.660 146.658,294.685 146.652,294.120 147.556 M280.984 159.713 C 280.072 160.497,279.987 160.710,280.507 160.909 C 280.916 161.066,281.374 160.794,281.802 160.141 C 282.706 158.761,282.323 158.560,280.984 159.713 M265.232 160.303 C 265.764 160.959,266.335 161.419,266.500 161.324 C 267.116 160.972,266.762 160.401,265.532 159.765 L 264.264 159.109 265.232 160.303 M266.981 186.800 C 266.981 195.050,267.034 198.425,267.099 194.300 C 267.164 190.175,267.164 183.425,267.099 179.300 C 267.034 175.175,266.981 178.550,266.981 186.800 M280.534 204.400 C 280.534 206.050,280.605 206.725,280.691 205.900 C 280.778 205.075,280.778 203.725,280.691 202.900 C 280.605 202.075,280.534 202.750,280.534 204.400 " stroke="none" fill="#5c849b" fill-rule="evenodd"></path><path id="path2" d="M343.128 138.605 C 343.015 138.718,314.860 138.989,280.562 139.207 C 246.263 139.426,213.205 139.721,207.100 139.863 L 196.000 140.123 196.000 143.310 C 196.000 145.945,196.094 146.420,196.541 146.049 C 196.904 145.747,197.030 144.975,196.924 143.700 C 196.836 142.655,196.908 141.598,197.082 141.352 C 197.528 140.724,343.204 139.310,345.082 139.916 C 345.370 140.009,345.611 141.060,345.682 142.536 C 345.843 145.888,346.572 145.659,346.720 142.210 C 346.819 139.927,346.714 139.326,346.144 138.910 C 345.454 138.405,343.523 138.210,343.128 138.605 M318.700 140.786 C 306.655 140.904,296.783 141.090,296.763 141.200 C 296.743 141.310,296.940 141.869,297.201 142.442 C 297.599 143.316,297.541 143.761,296.838 145.217 C 296.377 146.170,296.000 147.066,296.000 147.208 C 296.000 147.349,302.615 147.402,310.700 147.324 C 318.785 147.246,329.630 147.142,334.800 147.091 L 344.200 147.000 344.200 143.800 L 344.200 140.600 342.400 140.586 C 341.410 140.578,330.745 140.668,318.700 140.786 M220.800 141.595 L 198.200 141.800 198.081 144.765 C 198.016 146.395,198.133 147.835,198.342 147.965 C 198.921 148.324,245.728 147.846,246.301 147.476 C 246.664 147.241,246.689 146.940,246.391 146.384 C 245.873 145.416,246.235 143.928,247.254 142.834 C 248.375 141.631,247.861 141.186,245.476 141.295 C 244.334 141.347,233.230 141.482,220.800 141.595 M264.200 141.608 C 249.821 142.003,249.510 142.042,248.417 143.577 C 246.684 146.011,248.188 147.749,257.000 153.498 C 259.860 155.364,263.460 157.746,265.000 158.791 C 273.855 164.801,276.790 163.875,290.154 150.861 C 298.815 142.426,298.430 141.705,285.129 141.439 C 280.438 141.344,271.020 141.421,264.200 141.608 M267.200 166.738 C 267.200 171.501,267.315 171.760,269.896 172.781 C 271.528 173.427,275.674 173.165,277.700 172.289 L 279.200 171.641 279.200 167.020 C 279.200 164.479,279.040 162.400,278.844 162.400 C 278.648 162.400,277.703 162.756,276.744 163.191 C 274.516 164.202,272.547 164.205,269.904 163.200 C 268.747 162.760,267.665 162.400,267.500 162.400 C 267.335 162.400,267.200 164.352,267.200 166.738 M277.254 173.417 C 275.640 174.116,269.969 174.209,269.307 173.547 C 267.563 171.803,267.159 179.888,267.954 200.600 L 268.200 207.000 269.600 207.699 C 272.200 208.998,279.147 208.289,279.698 206.669 C 280.058 205.609,279.385 173.061,279.000 172.949 C 278.780 172.885,277.994 173.096,277.254 173.417 M274.341 194.800 C 274.385 200.315,274.062 202.581,273.456 201.001 C 273.094 200.060,273.136 180.598,273.500 180.231 C 273.867 179.860,274.279 186.983,274.341 194.800 M97.200 232.171 C 83.204 236.055,80.988 259.896,94.000 266.603 C 102.888 271.184,113.815 266.326,115.945 256.847 C 116.708 253.449,112.330 253.200,111.168 256.575 C 107.619 266.881,94.564 266.506,91.180 256.000 C 90.143 252.781,90.461 245.503,91.765 242.600 C 95.578 234.114,106.983 233.370,110.740 241.363 L 111.623 243.241 113.712 243.120 L 115.800 243.000 115.694 241.669 C 115.148 234.795,105.536 229.858,97.200 232.171 M140.685 232.649 C 140.303 233.031,140.318 267.195,140.700 267.218 C 144.408 267.435,161.174 267.593,161.873 267.417 C 162.752 267.197,162.831 266.997,162.721 265.287 L 162.600 263.400 154.000 263.200 L 145.400 263.000 145.200 247.800 L 145.000 232.600 142.985 232.482 C 141.876 232.417,140.841 232.492,140.685 232.649 M186.667 232.667 C 186.016 233.317,186.373 267.104,187.033 267.357 C 188.003 267.730,210.928 267.633,211.526 267.254 C 211.866 267.039,212.007 266.298,211.926 265.160 L 211.800 263.400 201.500 263.293 L 191.200 263.186 191.200 257.401 L 191.200 251.615 200.500 251.507 L 209.800 251.400 209.922 249.500 L 210.044 247.600 201.122 247.594 C 190.348 247.586,191.255 248.067,191.175 242.323 C 191.091 236.237,190.026 236.800,201.624 236.800 L 211.600 236.800 211.600 234.600 L 211.600 232.400 199.267 232.400 C 192.483 232.400,186.813 232.520,186.667 232.667 M246.635 233.271 C 246.286 233.770,246.000 234.402,246.000 234.675 C 246.000 234.949,245.736 235.764,245.413 236.486 C 245.091 237.209,244.086 239.780,243.181 242.200 C 242.276 244.620,241.010 247.995,240.367 249.700 C 239.725 251.405,238.675 254.195,238.033 255.900 C 237.391 257.605,236.205 260.747,235.398 262.882 C 233.731 267.295,233.782 267.600,236.195 267.600 C 237.984 267.600,239.200 266.858,239.200 265.766 C 239.200 265.449,239.366 264.877,239.568 264.495 C 239.770 264.113,240.322 262.720,240.793 261.400 C 242.512 256.581,241.717 257.016,249.058 256.890 C 256.598 256.762,255.840 256.301,257.798 262.205 C 259.430 267.129,259.822 267.600,262.289 267.600 C 264.634 267.600,264.731 267.097,263.196 262.907 C 262.489 260.978,261.467 258.140,260.925 256.600 C 259.683 253.072,258.422 249.638,257.987 248.600 C 257.803 248.160,257.281 246.720,256.827 245.400 C 256.373 244.080,255.146 240.660,254.101 237.800 L 252.200 232.600 249.735 232.482 C 247.555 232.377,247.197 232.468,246.635 233.271 M288.243 233.033 C 287.747 234.325,287.972 266.612,288.480 267.120 C 289.016 267.656,291.531 267.759,292.290 267.276 C 292.641 267.054,292.812 264.915,292.890 259.782 L 293.000 252.600 299.352 252.490 C 309.295 252.317,309.709 252.657,310.411 261.587 C 310.888 267.659,310.843 267.585,314.076 267.594 C 316.772 267.601,317.060 267.301,316.050 265.531 C 315.479 264.531,315.225 263.017,315.025 259.439 C 314.726 254.065,314.255 252.571,312.406 251.124 L 311.116 250.114 312.409 249.193 C 316.707 246.133,316.558 237.799,312.149 234.684 C 309.035 232.483,288.985 231.099,288.243 233.033 M308.000 237.501 C 311.844 239.421,311.717 245.909,307.802 247.641 C 306.249 248.327,305.263 248.407,299.520 248.310 L 293.000 248.200 292.889 242.500 L 292.778 236.800 299.689 236.801 C 305.467 236.801,306.829 236.916,308.000 237.501 M250.498 241.400 C 250.846 242.500,251.836 245.380,252.699 247.800 C 253.562 250.220,254.192 252.425,254.100 252.700 C 253.897 253.309,244.583 253.419,244.211 252.817 C 243.998 252.473,245.546 247.856,247.622 242.647 C 248.050 241.572,248.400 240.483,248.400 240.227 C 248.400 238.090,249.678 238.805,250.498 241.400 M103.000 299.851 C 92.644 301.414,86.689 313.367,90.371 325.200 C 95.267 340.934,117.922 340.061,122.382 323.967 C 126.444 309.309,117.129 297.720,103.000 299.851 M292.200 299.956 C 286.802 300.712,282.425 304.522,279.973 310.600 C 278.816 313.468,278.550 322.229,279.542 324.800 C 285.901 341.280,307.709 340.276,311.999 323.305 C 315.634 308.929,306.345 297.974,292.200 299.956 M38.183 301.300 C 38.077 301.575,38.038 309.270,38.095 318.400 L 38.200 335.000 40.300 335.121 L 42.400 335.242 42.400 327.264 C 42.400 320.358,42.485 319.253,43.033 319.043 C 43.814 318.743,51.685 318.801,56.800 319.145 L 60.600 319.400 60.800 327.400 L 61.000 335.400 62.730 335.524 C 65.754 335.742,65.600 336.694,65.600 317.751 L 65.600 300.800 63.200 300.800 L 60.800 300.800 60.800 307.613 C 60.800 315.775,61.967 314.895,51.071 314.954 L 42.600 315.000 42.491 307.900 L 42.382 300.800 40.378 300.800 C 39.144 300.800,38.301 300.992,38.183 301.300 M147.600 317.751 C 147.600 336.694,147.446 335.742,150.470 335.524 L 152.200 335.400 152.423 328.000 C 152.546 323.930,152.681 320.534,152.723 320.454 C 152.765 320.373,155.815 320.382,159.500 320.472 C 169.358 320.714,169.535 320.863,170.003 329.290 C 170.341 335.378,170.469 335.600,173.625 335.600 C 176.413 335.600,176.609 335.378,175.587 333.375 C 174.995 332.213,174.800 331.023,174.800 328.570 C 174.800 323.393,174.259 321.219,172.605 319.758 C 170.883 318.235,170.874 318.420,172.756 316.538 C 176.260 313.034,176.025 305.969,172.305 303.001 C 169.776 300.983,168.641 300.813,157.700 300.806 L 147.600 300.800 147.600 317.751 M201.600 317.720 C 201.600 336.070,201.541 335.600,203.847 335.600 C 206.588 335.600,206.400 336.899,206.400 317.957 L 206.400 300.800 204.000 300.800 L 201.600 300.800 201.600 317.720 M231.678 302.694 L 231.800 304.600 241.300 304.707 C 246.525 304.766,250.800 304.948,250.800 305.110 C 250.800 305.424,249.854 306.636,237.689 321.910 C 226.379 336.109,226.148 335.600,243.897 335.600 C 257.809 335.600,257.743 335.613,257.529 332.984 L 257.400 331.400 247.100 331.293 C 240.342 331.223,236.800 331.044,236.800 330.773 C 236.800 330.545,241.483 324.563,247.206 317.480 L 257.612 304.600 257.506 302.800 L 257.400 301.000 244.478 300.894 L 231.556 300.789 231.678 302.694 M336.800 317.957 C 336.800 336.899,336.612 335.600,339.353 335.600 C 341.627 335.600,341.600 335.766,341.600 321.520 C 341.600 313.040,341.741 308.400,342.000 308.400 C 342.220 308.400,342.400 308.564,342.400 308.764 C 342.400 308.964,344.245 311.919,346.500 315.330 C 348.755 318.742,352.110 323.933,353.956 326.867 C 355.802 329.800,357.745 332.883,358.274 333.719 L 359.236 335.237 361.718 335.119 L 364.200 335.000 364.200 318.000 L 364.200 301.000 362.200 301.000 L 360.200 301.000 360.095 314.532 C 359.975 329.897,360.099 329.505,356.968 324.371 C 355.838 322.517,353.897 319.380,352.654 317.400 C 351.412 315.420,348.642 310.875,346.498 307.300 L 342.601 300.800 339.700 300.800 L 336.800 300.800 336.800 317.957 M110.968 304.822 C 119.174 307.893,120.955 322.239,114.031 329.496 C 110.545 333.149,101.447 332.726,97.723 328.737 C 94.397 325.174,93.344 315.633,95.734 310.714 C 98.507 305.007,104.877 302.543,110.968 304.822 M300.251 304.646 C 308.394 308.041,310.386 321.684,303.826 329.139 C 300.050 333.431,290.020 332.771,286.557 328.003 C 278.319 316.659,288.287 299.657,300.251 304.646 M167.600 305.501 C 171.414 307.406,171.306 313.882,167.430 315.642 C 165.159 316.674,153.030 316.776,152.643 315.767 C 152.312 314.906,152.333 305.400,152.667 305.067 C 153.321 304.413,166.170 304.786,167.600 305.501 M63.335 378.226 C 62.938 379.261,65.657 389.202,66.454 389.629 C 67.235 390.047,68.400 388.791,68.400 387.530 C 68.400 387.149,68.565 386.424,68.767 385.919 C 68.968 385.413,69.352 384.145,69.619 383.100 C 70.364 380.181,70.687 380.603,72.218 386.500 C 73.557 391.657,74.634 390.959,76.525 383.709 C 77.555 379.758,77.787 378.321,77.439 378.032 C 76.586 377.325,76.085 378.169,75.237 381.738 C 73.996 386.966,73.900 386.984,72.599 382.230 C 70.780 375.586,69.419 376.415,67.405 385.394 C 67.040 387.024,66.679 386.288,65.609 381.731 C 64.780 378.200,63.878 376.810,63.335 378.226 M90.132 378.234 C 89.845 378.981,90.556 379.798,91.165 379.422 C 91.800 379.029,91.696 378.123,90.985 377.850 C 90.628 377.713,90.270 377.874,90.132 378.234 M130.220 378.055 C 130.116 378.355,129.979 379.230,129.915 380.000 C 129.832 381.016,129.635 381.356,129.200 381.240 C 126.423 380.501,124.773 381.154,124.030 383.286 C 122.660 387.217,124.974 390.730,128.300 389.769 C 128.905 389.594,129.850 389.440,130.400 389.426 L 131.400 389.400 131.511 383.958 C 131.617 378.740,130.986 375.851,130.220 378.055 M203.216 378.648 C 197.627 383.350,202.955 392.951,209.081 389.216 C 210.709 388.223,211.926 386.054,211.138 385.549 C 210.775 385.317,210.373 385.497,209.904 386.102 C 208.419 388.019,207.840 388.400,206.430 388.387 C 203.991 388.366,202.800 386.860,202.800 383.800 C 202.800 379.464,206.902 377.360,209.323 380.453 C 210.297 381.698,211.200 381.738,211.200 380.537 C 211.200 377.890,205.671 376.582,203.216 378.648 M224.233 378.258 C 223.402 380.423,224.077 390.099,225.033 389.732 C 225.486 389.558,225.600 388.362,225.600 383.800 C 225.600 378.285,225.061 376.100,224.233 378.258 M298.250 378.319 C 297.898 378.888,298.592 379.576,299.162 379.224 C 299.459 379.040,299.579 378.689,299.428 378.445 C 299.106 377.925,298.531 377.864,298.250 378.319 M90.239 381.094 C 89.498 381.836,90.009 389.600,90.800 389.600 C 91.549 389.600,91.600 389.333,91.600 385.443 C 91.600 381.474,91.185 380.148,90.239 381.094 M107.008 381.187 C 106.877 381.400,106.236 381.467,105.584 381.337 L 104.400 381.100 104.400 385.379 C 104.400 389.239,104.469 389.646,105.100 389.525 C 105.678 389.415,105.821 388.877,105.918 386.449 C 106.165 380.327,110.000 380.633,110.000 386.774 C 110.000 389.333,110.075 389.600,110.800 389.600 C 112.019 389.600,111.996 383.411,110.771 381.854 C 109.919 380.771,107.527 380.347,107.008 381.187 M145.347 381.509 C 142.037 384.190,143.494 390.014,147.469 389.991 C 150.078 389.976,151.600 388.158,151.600 385.057 C 151.600 381.668,147.807 379.516,145.347 381.509 M163.374 381.323 C 163.099 382.040,165.080 388.789,165.783 389.529 C 166.376 390.152,167.600 389.201,167.600 388.118 C 167.600 387.066,168.506 384.400,168.863 384.400 C 169.048 384.400,169.200 384.597,169.200 384.838 C 169.200 386.693,170.530 389.638,171.316 389.523 C 172.251 389.387,174.684 382.516,174.223 381.315 C 173.805 380.227,172.959 381.450,172.207 384.228 C 171.402 387.203,171.149 387.156,170.399 383.895 C 169.494 379.955,168.118 379.868,167.255 383.695 C 166.489 387.092,166.201 387.131,165.363 383.953 C 164.623 381.149,163.839 380.112,163.374 381.323 M240.121 381.279 C 237.739 382.430,237.321 387.372,239.461 389.084 C 241.016 390.329,243.158 390.302,244.542 389.019 C 246.460 387.241,245.791 386.642,243.437 388.031 C 241.748 389.028,240.520 388.769,239.962 387.299 C 239.535 386.177,240.067 385.497,241.070 385.882 C 242.180 386.308,246.000 385.571,246.000 384.932 C 246.000 382.010,242.766 380.001,240.121 381.279 M259.454 381.629 C 258.324 382.518,258.048 383.600,258.951 383.600 C 259.254 383.600,259.734 383.321,260.017 382.980 C 260.802 382.033,263.400 382.354,263.400 383.397 C 263.400 384.024,262.996 384.280,261.512 384.597 C 259.216 385.087,258.000 386.056,258.000 387.396 C 258.000 389.455,260.454 390.641,262.476 389.559 C 263.093 389.229,263.541 389.247,264.258 389.631 C 265.431 390.259,266.520 389.560,265.680 388.720 C 265.399 388.439,265.197 387.072,265.194 385.420 C 265.187 382.359,265.044 381.954,263.726 381.260 C 262.391 380.557,260.622 380.710,259.454 381.629 M278.643 381.090 C 278.055 381.678,278.387 389.600,279.000 389.600 C 279.469 389.600,279.601 389.053,279.606 387.100 C 279.613 383.978,280.236 382.644,281.766 382.468 C 283.276 382.294,283.586 382.882,283.594 385.926 C 283.600 388.508,284.140 390.208,284.820 389.788 C 285.578 389.319,285.275 382.609,284.453 381.661 C 283.624 380.706,281.658 380.502,280.870 381.290 C 280.494 381.666,280.207 381.672,279.633 381.314 C 279.222 381.057,278.777 380.956,278.643 381.090 M312.412 381.578 C 311.874 382.584,311.880 388.228,312.420 389.237 C 313.124 390.552,313.600 389.684,313.606 387.076 C 313.614 383.727,314.220 382.600,316.012 382.600 L 317.400 382.600 317.518 385.781 C 317.729 391.446,319.200 391.461,319.200 385.799 C 319.200 381.326,317.061 379.099,314.870 381.290 C 314.485 381.675,314.213 381.676,313.602 381.294 C 312.947 380.885,312.759 380.930,312.412 381.578 M332.831 382.031 C 329.357 385.505,332.524 391.248,336.900 389.409 C 337.434 389.184,337.600 389.308,337.600 389.929 C 337.600 391.737,335.356 392.608,333.776 391.413 C 332.798 390.672,332.000 390.639,332.000 391.338 C 332.000 392.385,333.425 393.200,335.231 393.187 C 338.558 393.163,339.200 391.965,339.200 385.776 L 339.200 381.100 338.016 381.337 C 337.364 381.467,336.723 381.400,336.592 381.187 C 336.075 380.351,334.058 380.803,332.831 382.031 M298.184 381.698 C 297.613 383.186,298.192 389.389,298.914 389.528 C 299.568 389.653,299.619 389.318,299.514 385.565 C 299.406 381.693,298.829 380.016,298.184 381.698 M129.460 383.758 C 130.390 385.706,129.237 388.800,127.582 388.800 C 126.635 388.800,125.200 386.816,125.200 385.507 C 125.200 382.375,128.211 381.138,129.460 383.758 M149.377 383.289 C 150.925 385.498,149.580 388.749,147.100 388.795 C 145.580 388.822,144.701 385.532,145.664 383.419 C 146.285 382.057,148.461 381.981,149.377 383.289 M243.520 382.880 C 243.784 383.144,244.000 383.684,244.000 384.080 C 244.000 385.040,240.507 385.144,240.143 384.195 C 239.600 382.780,242.349 381.709,243.520 382.880 M336.869 383.062 C 337.810 383.914,337.852 386.659,336.938 387.669 C 335.379 389.391,333.200 388.129,333.200 385.503 C 333.200 382.809,335.153 381.509,336.869 383.062 M263.443 386.169 C 264.050 387.751,261.292 389.463,260.083 388.254 C 259.338 387.510,259.706 386.492,260.891 386.016 C 262.244 385.472,263.198 385.530,263.443 386.169 " stroke="none" fill="#f2eae2" fill-rule="evenodd"></path><path id="path3" d="M314.800 138.267 C 312.710 138.325,285.089 138.560,253.420 138.791 C 208.500 139.118,195.770 139.319,195.518 139.705 C 194.753 140.879,195.345 146.592,196.245 146.721 C 196.710 146.787,197.292 147.284,197.538 147.824 L 197.986 148.807 222.493 148.549 C 237.807 148.388,247.190 148.141,247.506 147.891 C 247.863 147.610,248.217 147.715,248.706 148.248 C 249.841 149.484,253.101 152.000,253.567 152.000 C 253.805 152.000,254.000 152.147,254.000 152.326 C 254.000 152.505,254.675 153.014,255.500 153.456 C 258.017 154.806,258.925 155.370,259.755 156.100 C 260.193 156.485,260.704 156.800,260.892 156.800 C 261.080 156.800,261.620 157.160,262.092 157.600 C 262.564 158.040,263.187 158.400,263.475 158.400 C 263.764 158.400,264.000 158.547,264.000 158.726 C 264.000 158.905,264.605 159.340,265.344 159.693 C 266.387 160.190,266.695 160.588,266.718 161.467 C 266.734 162.090,266.874 172.725,267.030 185.100 C 267.263 203.658,267.408 207.600,267.856 207.600 C 268.155 207.600,268.400 207.780,268.400 208.000 C 268.400 208.220,268.839 208.400,269.376 208.400 C 269.913 208.400,270.464 208.580,270.600 208.800 C 270.905 209.294,276.551 209.332,277.505 208.847 C 277.887 208.652,278.698 208.260,279.307 207.976 L 280.413 207.458 280.383 185.193 C 280.366 172.947,280.473 162.449,280.620 161.864 C 280.795 161.167,280.726 160.800,280.420 160.800 C 279.676 160.800,280.340 160.048,282.019 158.988 C 282.872 158.450,284.382 157.197,285.375 156.204 C 286.367 155.212,287.280 154.400,287.404 154.400 C 287.852 154.400,293.481 148.770,293.997 147.806 C 294.449 146.962,294.589 146.906,294.966 147.422 C 295.714 148.444,344.830 147.771,345.101 146.734 C 345.207 146.331,345.629 146.000,346.039 146.000 C 347.017 146.000,347.267 144.887,347.119 141.195 L 347.000 138.200 332.800 138.181 C 324.990 138.171,316.890 138.210,314.800 138.267 M346.144 138.910 C 346.714 139.326,346.819 139.927,346.720 142.210 C 346.572 145.659,345.843 145.888,345.682 142.536 C 345.611 141.060,345.370 140.009,345.082 139.916 C 343.204 139.310,197.528 140.724,197.082 141.352 C 196.908 141.598,196.836 142.655,196.924 143.700 C 197.030 144.975,196.904 145.747,196.541 146.049 C 196.094 146.420,196.000 145.945,196.000 143.310 L 196.000 140.123 207.100 139.863 C 213.205 139.721,246.263 139.426,280.562 139.207 C 314.860 138.989,343.015 138.718,343.128 138.605 C 343.523 138.210,345.454 138.405,346.144 138.910 M295.102 141.100 C 295.315 141.748,294.507 141.708,293.000 140.998 L 291.800 140.433 293.369 140.516 C 294.232 140.562,295.012 140.825,295.102 141.100 M344.200 143.800 L 344.200 147.000 334.800 147.091 C 329.630 147.142,318.785 147.246,310.700 147.324 C 302.615 147.402,296.000 147.349,296.000 147.208 C 296.000 147.066,296.377 146.170,296.838 145.217 C 297.541 143.761,297.599 143.316,297.201 142.442 C 296.940 141.869,296.743 141.310,296.763 141.200 C 296.792 141.041,334.943 140.528,342.400 140.586 L 344.200 140.600 344.200 143.800 M257.600 141.200 C 256.096 141.682,249.102 141.682,249.400 141.200 C 249.543 140.968,251.526 140.817,254.124 140.840 C 256.984 140.865,258.239 140.995,257.600 141.200 M247.797 141.595 C 247.931 141.812,247.687 142.370,247.254 142.834 C 246.235 143.928,245.873 145.416,246.391 146.384 C 246.689 146.940,246.664 147.241,246.301 147.476 C 245.728 147.846,198.921 148.324,198.342 147.965 C 198.133 147.835,198.016 146.395,198.081 144.765 L 198.200 141.800 220.800 141.595 C 233.230 141.482,244.334 141.347,245.476 141.295 C 246.618 141.243,247.663 141.378,247.797 141.595 M294.776 142.187 C 295.810 142.722,296.768 144.966,296.203 145.531 C 296.091 145.642,296.000 145.406,296.000 145.007 C 296.000 144.498,295.656 144.749,294.854 145.840 C 292.536 148.994,283.529 157.331,279.600 159.960 C 274.168 163.594,271.798 163.405,265.000 158.791 C 263.460 157.746,259.860 155.364,257.000 153.498 C 251.038 149.609,247.600 146.693,247.600 145.525 C 247.600 144.189,249.119 142.451,250.517 142.189 C 255.832 141.192,292.848 141.191,294.776 142.187 M269.904 163.200 C 272.547 164.205,274.516 164.202,276.744 163.191 C 277.703 162.756,278.648 162.400,278.844 162.400 C 279.040 162.400,279.200 164.479,279.200 167.020 L 279.200 171.641 277.700 172.289 C 274.524 173.662,269.894 173.371,267.900 171.672 C 267.172 171.052,266.799 162.400,267.500 162.400 C 267.665 162.400,268.747 162.760,269.904 163.200 M279.629 189.633 C 279.754 198.745,279.786 206.411,279.698 206.669 C 279.147 208.289,272.200 208.998,269.600 207.699 L 268.200 207.000 267.954 200.600 C 267.159 179.888,267.563 171.803,269.307 173.547 C 269.969 174.209,275.640 174.116,277.254 173.417 C 277.994 173.096,278.780 172.885,279.000 172.949 C 279.254 173.023,279.484 179.131,279.629 189.633 M273.500 180.231 C 273.136 180.598,273.094 200.060,273.456 201.001 C 273.660 201.532,273.780 201.559,274.050 201.134 C 274.689 200.125,274.149 179.576,273.500 180.231 M37.867 300.667 C 37.720 300.813,37.600 308.730,37.600 318.259 L 37.600 335.585 38.538 335.820 C 39.054 335.950,40.179 335.998,41.038 335.928 L 42.600 335.800 42.709 328.011 C 42.769 323.727,42.984 320.056,43.188 319.852 C 43.392 319.648,46.223 319.502,49.479 319.527 C 53.260 319.557,55.111 319.444,54.600 319.215 C 53.700 318.811,44.011 318.667,43.033 319.043 C 42.485 319.253,42.400 320.358,42.400 327.264 L 42.400 335.242 40.300 335.121 L 38.200 335.000 38.200 318.000 L 38.200 301.000 40.291 300.879 L 42.381 300.759 42.491 307.879 L 42.600 315.000 49.177 315.110 C 52.794 315.171,55.626 315.093,55.470 314.936 C 55.313 314.780,52.553 314.699,49.335 314.757 C 42.233 314.883,42.814 315.565,42.806 307.100 L 42.800 300.400 40.467 300.400 C 39.183 300.400,38.013 300.520,37.867 300.667 M359.884 300.649 C 359.728 300.805,359.594 306.798,359.586 313.967 L 359.571 327.000 358.582 325.800 C 358.037 325.140,357.370 324.105,357.098 323.500 C 356.827 322.895,356.469 322.400,356.302 322.400 C 356.136 322.400,356.000 322.210,356.000 321.978 C 356.000 321.746,355.280 320.496,354.400 319.200 C 353.520 317.904,352.800 316.756,352.800 316.648 C 352.800 316.297,346.878 307.027,345.997 306.000 C 344.692 304.477,345.534 305.919,352.419 317.000 C 353.239 318.320,355.066 321.278,356.478 323.574 C 360.175 329.586,359.973 330.091,360.095 314.532 L 360.200 301.000 362.200 301.000 L 364.200 301.000 364.200 318.000 L 364.200 335.000 361.618 335.000 L 359.036 335.000 357.018 331.765 C 350.006 320.522,347.086 315.953,346.388 315.133 L 345.596 314.200 346.023 315.392 C 346.258 316.047,346.596 316.677,346.775 316.792 C 346.953 316.906,348.286 318.890,349.737 321.200 C 351.188 323.510,352.561 325.617,352.787 325.883 C 353.014 326.149,353.200 326.474,353.200 326.605 C 353.200 326.736,353.886 327.869,354.724 329.122 C 355.563 330.375,356.738 332.252,357.337 333.293 C 358.654 335.584,359.359 336.000,361.925 336.000 C 364.962 336.000,364.821 336.926,364.704 317.754 L 364.600 300.600 362.384 300.483 C 361.165 300.418,360.040 300.493,359.884 300.649 " stroke="none" fill="#99a4ab" fill-rule="evenodd"></path><path id="path4" d="M57.200 70.118 L 56.200 70.623 55.932 138.812 C 55.716 193.812,55.536 209.592,54.999 220.400 C 54.353 233.429,54.042 313.497,54.635 314.456 C 54.752 314.645,55.077 314.800,55.358 314.800 C 55.885 314.800,55.850 317.131,56.775 220.400 C 56.929 204.230,57.090 164.180,57.131 131.400 C 57.202 76.069,57.255 71.764,57.880 71.300 C 59.182 70.333,194.263 70.596,194.782 71.567 C 195.062 72.089,195.074 83.143,194.820 106.267 C 194.409 143.761,194.500 147.329,195.881 147.525 C 196.366 147.594,196.879 148.019,197.022 148.470 C 197.281 149.286,197.371 149.289,222.748 149.145 L 248.214 149.000 251.408 151.400 C 253.164 152.720,256.645 155.060,259.141 156.600 C 261.829 158.258,264.195 160.046,264.941 160.984 L 266.200 162.567 266.339 184.939 L 266.479 207.311 267.450 208.212 C 269.894 210.477,276.888 210.499,280.164 208.253 L 281.328 207.454 281.054 184.914 L 280.779 162.374 281.887 160.887 C 282.496 160.069,283.986 158.500,285.197 157.400 C 286.409 156.300,289.020 153.843,291.000 151.940 L 294.600 148.481 320.200 148.340 L 345.800 148.200 345.778 226.128 C 345.761 286.480,345.647 304.124,345.274 304.355 C 344.931 304.566,345.083 304.926,345.796 305.596 L 346.800 306.539 346.800 226.270 C 346.800 147.924,346.782 146.000,346.047 146.000 C 345.630 146.000,345.200 146.357,345.084 146.800 C 344.881 147.575,344.538 147.600,334.137 147.601 C 328.232 147.601,316.813 147.720,308.762 147.864 L 294.123 148.128 290.159 151.964 C 287.979 154.074,285.374 156.520,284.369 157.400 C 283.365 158.280,282.041 159.758,281.428 160.685 L 280.313 162.371 280.456 184.885 L 280.600 207.400 278.815 208.300 C 276.570 209.432,271.934 209.514,269.200 208.468 L 267.400 207.780 267.142 204.190 C 267.001 202.216,266.866 192.032,266.842 181.559 L 266.800 162.518 265.888 161.159 C 264.987 159.815,258.266 154.853,257.300 154.818 C 257.025 154.808,256.800 154.620,256.800 154.400 C 256.800 154.180,256.607 154.000,256.372 154.000 C 255.920 154.000,252.574 151.805,251.665 150.913 C 251.371 150.624,250.531 149.930,249.798 149.371 L 248.465 148.355 236.933 148.374 C 230.590 148.384,219.244 148.513,211.720 148.659 L 198.039 148.924 197.565 147.883 C 197.304 147.310,196.710 146.787,196.245 146.721 C 195.227 146.575,195.271 150.397,195.757 104.383 C 196.087 73.124,196.065 70.923,195.426 70.283 C 194.524 69.381,58.977 69.219,57.200 70.118 M345.069 323.800 C 344.922 329.300,344.801 364.449,344.801 401.910 L 344.800 470.020 343.700 470.441 C 342.208 471.013,57.404 470.376,56.868 469.800 C 56.643 469.558,56.438 439.762,56.348 394.300 C 56.267 352.995,56.080 319.200,55.933 319.200 C 54.574 319.199,54.598 317.792,54.689 393.704 C 54.780 469.414,54.788 469.930,55.844 470.987 C 56.571 471.714,344.053 471.934,345.200 471.209 C 345.965 470.725,346.524 317.102,345.769 315.000 C 345.429 314.056,345.280 315.931,345.069 323.800 " stroke="none" fill="#9c895d" fill-rule="evenodd"></path></g></svg>